<?xml version="1.0" encoding="UTF-8"?>
<!DOCTYPE svg PUBLIC "-//W3C//DTD SVG 1.1//EN" "http://www.w3.org/Graphics/SVG/1.1/DTD/svg11.dtd">
<svg xmlns="http://www.w3.org/2000/svg" version="1.1" width="384px" height="384px" style="shape-rendering:geometricPrecision; text-rendering:geometricPrecision; image-rendering:optimizeQuality; fill-rule:evenodd; clip-rule:evenodd" xmlns:xlink="http://www.w3.org/1999/xlink">
    <defs>
    <style>
      .i-color {
        fill: #000;
        fill-rule: evenodd;
      }
    </style>
  </defs>
<g><path style="opacity:0.965" class="i-color" d="M 15.5,367.5 C 25.1667,355.663 34.6667,343.663 44,331.5C 57.8559,310.079 63.1893,286.746 60,261.5C 56.5597,251.285 52.5597,241.285 48,231.5C 29.5757,170.358 43.4091,117.858 89.5,74C 132.084,40.1519 179.417,31.4852 231.5,48C 240.167,51.6667 248.833,55.3333 257.5,59C 284.105,63.8514 308.771,58.8514 331.5,44C 343.956,34.5458 356.123,24.7125 368,14.5C 368.667,15.1667 368.667,15.8333 368,16.5C 288.746,105.093 205.913,190.593 119.5,273C 85.242,305.098 50.5753,336.598 15.5,367.5 Z M 170.5,68.5 C 200.829,66.2022 227.996,74.2022 252,92.5C 257,100.3 256.5,107.633 250.5,114.5C 214.639,83.8319 175.639,79.3319 133.5,101C 103.918,120.148 88.5846,147.482 87.5,183C 87.8035,209.089 96.8035,231.589 114.5,250.5C 106.136,257.336 97.9692,257.003 90,249.5C 61.6139,204.766 61.9473,160.099 91,115.5C 111.341,89.413 137.841,73.7463 170.5,68.5 Z M 177.5,96.5 C 203.134,95.8744 225.3,104.208 244,121.5C 247.222,125.139 247.888,129.139 246,133.5C 209.528,170.972 172.695,208.139 135.5,245C 131.968,247.524 128.302,247.857 124.5,246C 97.4609,218.823 90.2942,186.99 103,150.5C 117.716,118.404 142.55,100.404 177.5,96.5 Z"/></g>
<g><path style="opacity:0.967" class="i-color" d="M 296.5,125.5 C 304.022,135.558 309.189,146.891 312,159.5C 322.351,209.442 308.851,251.609 271.5,286C 233.93,315.845 192.264,323.178 146.5,308C 139.221,305.027 132.221,301.527 125.5,297.5C 135.732,289.193 147.398,286.359 160.5,289C 204.358,299.824 241.191,288.324 271,254.5C 292.067,226.104 298.067,194.771 289,160.5C 286.93,147.79 289.43,136.123 296.5,125.5 Z"/></g>
<g><path style="opacity:0.922" class="i-color" d="M 269.5,144.5 C 271.284,145.574 272.451,147.24 273,149.5C 287.309,198.583 273.476,237.416 231.5,266C 203.581,280.677 174.914,282.343 145.5,271C 144.542,269.853 144.875,268.853 146.5,268C 148.9,266.299 151.567,265.466 154.5,265.5C 198.366,276.609 232.866,263.609 258,226.5C 270.162,203.698 272.662,179.864 265.5,155C 265.589,150.995 266.922,147.495 269.5,144.5 Z"/></g>
<g><path style="opacity:0.063" class="i-color" d="M 15.5,367.5 C 14.8333,368.167 14.8333,368.167 15.5,367.5 Z"/></g>
</svg>
